# xmcd
#
# Track frame offsets: 
#        150
#        23569
#        45932
#        63383
#        85675
#        125556
#        168038
#        187588
#        218044
#        244760
#
# Disc length: 3614 seconds
#
# Revision: 2
# Processed by: cddbd v1.5.2PL0 Copyright (c) Steve Scherf et al.
# Submitted via: ExactAudioCopy v1.0b4
#
DISCID=6e0e1c0a
DTITLE=Andy J. Forest Band - Live
DYEAR=2004
DGENRE=Blues
TTITLE0=Je Joue
TTITLE1=Take A Look
TTITLE2=Fat Chance
TTITLE3=Groove Me
TTITLE4=All Blues
TTITLE5=Never Been To Chicago
TTITLE6=We Win
TTITLE7=Long Dark Road
TTITLE8=Mellow Down Easy
TTITLE9=Sunday Rumba
EXTD=
EXTT0=
EXTT1=
EXTT2=
EXTT3=
EXTT4=
EXTT5=
EXTT6=
EXTT7=
EXTT8=
EXTT9=
PLAYORDER=
